<mxGraphModel dx="828" dy="452" grid="1" gridSize="10" guides="1" tooltips="1" connect="1" arrows="1" fold="1" page="1" pageScale="1" pageWidth="827" pageHeight="1169" math="0" shadow="0">
  <root>
    <mxCell id="0" />
    <mxCell id="1" parent="0" />
    <mxCell id="SvOMnRUsbYDvrZykP-B6-26" value="" style="rounded=1;arcSize=10;dashed=0;fillColor=none;gradientColor=none;strokeWidth=2;" parent="1" vertex="1">
      <mxGeometry x="54" y="190" width="720" height="730" as="geometry" />
    </mxCell>
    <mxCell id="SvOMnRUsbYDvrZykP-B6-1" value="VPC" style="points=[[0,0],[0.25,0],[0.5,0],[0.75,0],[1,0],[1,0.25],[1,0.5],[1,0.75],[1,1],[0.75,1],[0.5,1],[0.25,1],[0,1],[0,0.75],[0,0.5],[0,0.25]];outlineConnect=0;gradientColor=none;html=1;whiteSpace=wrap;fontSize=12;fontStyle=0;shape=mxgraph.aws4.group;grIcon=mxgraph.aws4.group_vpc;strokeColor=#248814;fillColor=none;verticalAlign=top;align=left;spacingLeft=30;fontColor=#AAB7B8;dashed=0;" parent="1" vertex="1">
      <mxGeometry x="134" y="240" width="566" height="560" as="geometry" />
    </mxCell>
    <mxCell id="SvOMnRUsbYDvrZykP-B6-2" value="" style="rounded=1;arcSize=10;dashed=1;strokeColor=#F59D56;fillColor=none;gradientColor=none;dashPattern=8 4;strokeWidth=2;" parent="1" vertex="1">
      <mxGeometry x="184" y="300" width="199.5" height="490" as="geometry" />
    </mxCell>
    <mxCell id="SvOMnRUsbYDvrZykP-B6-3" value="" style="rounded=1;arcSize=10;dashed=1;strokeColor=#F59D56;fillColor=none;gradientColor=none;dashPattern=8 4;strokeWidth=2;" parent="1" vertex="1">
      <mxGeometry x="444" y="290" width="199.5" height="500" as="geometry" />
    </mxCell>
    <mxCell id="SvOMnRUsbYDvrZykP-B6-20" style="edgeStyle=orthogonalEdgeStyle;rounded=0;orthogonalLoop=1;jettySize=auto;html=1;exitX=0.5;exitY=0;exitDx=0;exitDy=0;entryX=0;entryY=0.5;entryDx=0;entryDy=0;entryPerimeter=0;" parent="1" source="SvOMnRUsbYDvrZykP-B6-4" target="SvOMnRUsbYDvrZykP-B6-19" edge="1">
      <mxGeometry relative="1" as="geometry" />
    </mxCell>
    <mxCell id="SvOMnRUsbYDvrZykP-B6-4" value="Public subnet" style="points=[[0,0],[0.25,0],[0.5,0],[0.75,0],[1,0],[1,0.25],[1,0.5],[1,0.75],[1,1],[0.75,1],[0.5,1],[0.25,1],[0,1],[0,0.75],[0,0.5],[0,0.25]];outlineConnect=0;gradientColor=none;html=1;whiteSpace=wrap;fontSize=12;fontStyle=0;shape=mxgraph.aws4.group;grIcon=mxgraph.aws4.group_security_group;grStroke=0;strokeColor=#248814;fillColor=#E9F3E6;verticalAlign=top;align=left;spacingLeft=30;fontColor=#248814;dashed=0;" parent="1" vertex="1">
      <mxGeometry x="219" y="360" width="130" height="130" as="geometry" />
    </mxCell>
    <mxCell id="SvOMnRUsbYDvrZykP-B6-21" style="edgeStyle=orthogonalEdgeStyle;rounded=0;orthogonalLoop=1;jettySize=auto;html=1;exitX=0.5;exitY=0;exitDx=0;exitDy=0;entryX=1;entryY=0.5;entryDx=0;entryDy=0;entryPerimeter=0;" parent="1" source="SvOMnRUsbYDvrZykP-B6-5" target="SvOMnRUsbYDvrZykP-B6-19" edge="1">
      <mxGeometry relative="1" as="geometry" />
    </mxCell>
    <mxCell id="SvOMnRUsbYDvrZykP-B6-5" value="Public subnet" style="points=[[0,0],[0.25,0],[0.5,0],[0.75,0],[1,0],[1,0.25],[1,0.5],[1,0.75],[1,1],[0.75,1],[0.5,1],[0.25,1],[0,1],[0,0.75],[0,0.5],[0,0.25]];outlineConnect=0;gradientColor=none;html=1;whiteSpace=wrap;fontSize=12;fontStyle=0;shape=mxgraph.aws4.group;grIcon=mxgraph.aws4.group_security_group;grStroke=0;strokeColor=#248814;fillColor=#E9F3E6;verticalAlign=top;align=left;spacingLeft=30;fontColor=#248814;dashed=0;" parent="1" vertex="1">
      <mxGeometry x="479" y="360" width="130" height="130" as="geometry" />
    </mxCell>
    <mxCell id="SvOMnRUsbYDvrZykP-B6-6" value="Private subnet" style="points=[[0,0],[0.25,0],[0.5,0],[0.75,0],[1,0],[1,0.25],[1,0.5],[1,0.75],[1,1],[0.75,1],[0.5,1],[0.25,1],[0,1],[0,0.75],[0,0.5],[0,0.25]];outlineConnect=0;gradientColor=none;html=1;whiteSpace=wrap;fontSize=12;fontStyle=0;shape=mxgraph.aws4.group;grIcon=mxgraph.aws4.group_security_group;grStroke=0;strokeColor=#147EBA;fillColor=#E6F2F8;verticalAlign=top;align=left;spacingLeft=30;fontColor=#147EBA;dashed=0;" parent="1" vertex="1">
      <mxGeometry x="219" y="520" width="151" height="260" as="geometry" />
    </mxCell>
    <mxCell id="SvOMnRUsbYDvrZykP-B6-7" value="Private subnet" style="points=[[0,0],[0.25,0],[0.5,0],[0.75,0],[1,0],[1,0.25],[1,0.5],[1,0.75],[1,1],[0.75,1],[0.5,1],[0.25,1],[0,1],[0,0.75],[0,0.5],[0,0.25]];outlineConnect=0;gradientColor=none;html=1;whiteSpace=wrap;fontSize=12;fontStyle=0;shape=mxgraph.aws4.group;grIcon=mxgraph.aws4.group_security_group;grStroke=0;strokeColor=#147EBA;fillColor=#E6F2F8;verticalAlign=top;align=left;spacingLeft=30;fontColor=#147EBA;dashed=0;" parent="1" vertex="1">
      <mxGeometry x="474" y="520" width="136" height="240" as="geometry" />
    </mxCell>
    <mxCell id="SvOMnRUsbYDvrZykP-B6-9" value="" style="outlineConnect=0;dashed=0;verticalLabelPosition=bottom;verticalAlign=top;align=center;html=1;shape=mxgraph.aws3.vpc_nat_gateway;fillColor=#F58534;gradientColor=none;" parent="1" vertex="1">
      <mxGeometry x="234" y="389" width="40" height="41" as="geometry" />
    </mxCell>
    <mxCell id="SvOMnRUsbYDvrZykP-B6-12" value="" style="rounded=1;arcSize=10;dashed=1;fillColor=none;gradientColor=none;dashPattern=8 3 1 3;strokeWidth=2;" parent="1" vertex="1">
      <mxGeometry x="284" y="410" width="270" height="60" as="geometry" />
    </mxCell>
    <mxCell id="SvOMnRUsbYDvrZykP-B6-14" value="" style="outlineConnect=0;dashed=0;verticalLabelPosition=bottom;verticalAlign=top;align=center;html=1;shape=mxgraph.aws3.ec2;fillColor=#F58534;gradientColor=none;" parent="1" vertex="1">
      <mxGeometry x="304" y="413.5" width="40" height="53" as="geometry" />
    </mxCell>
    <mxCell id="SvOMnRUsbYDvrZykP-B6-15" value="" style="outlineConnect=0;dashed=0;verticalLabelPosition=bottom;verticalAlign=top;align=center;html=1;shape=mxgraph.aws3.ec2;fillColor=#F58534;gradientColor=none;" parent="1" vertex="1">
      <mxGeometry x="494" y="410" width="40" height="53" as="geometry" />
    </mxCell>
    <mxCell id="SvOMnRUsbYDvrZykP-B6-16" value="" style="outlineConnect=0;dashed=0;verticalLabelPosition=bottom;verticalAlign=top;align=center;html=1;shape=mxgraph.aws3.auto_scaling;fillColor=#F58534;gradientColor=none;" parent="1" vertex="1">
      <mxGeometry x="284" y="395.5" width="25" height="28" as="geometry" />
    </mxCell>
    <mxCell id="1bcdogwH6yoz4RuCBmq0-6" style="edgeStyle=orthogonalEdgeStyle;rounded=0;orthogonalLoop=1;jettySize=auto;html=1;entryX=0.5;entryY=0;entryDx=0;entryDy=0;entryPerimeter=0;" parent="1" source="SvOMnRUsbYDvrZykP-B6-17" target="SvOMnRUsbYDvrZykP-B6-19" edge="1">
      <mxGeometry relative="1" as="geometry" />
    </mxCell>
    <mxCell id="SvOMnRUsbYDvrZykP-B6-17" value="" style="outlineConnect=0;dashed=0;verticalLabelPosition=bottom;verticalAlign=top;align=center;html=1;shape=mxgraph.aws3.internet_gateway;fillColor=#F58534;gradientColor=none;" parent="1" vertex="1">
      <mxGeometry x="398" y="220" width="39" height="40" as="geometry" />
    </mxCell>
    <mxCell id="SvOMnRUsbYDvrZykP-B6-19" value="" style="outlineConnect=0;dashed=0;verticalLabelPosition=bottom;verticalAlign=top;align=center;html=1;shape=mxgraph.aws3.classic_load_balancer;fillColor=#F58534;gradientColor=none;" parent="1" vertex="1">
      <mxGeometry x="398" y="290" width="30" height="30" as="geometry" />
    </mxCell>
    <mxCell id="SvOMnRUsbYDvrZykP-B6-28" value="" style="outlineConnect=0;dashed=0;verticalLabelPosition=bottom;verticalAlign=top;align=center;html=1;shape=mxgraph.aws3.cloud_2;fillColor=#F58534;gradientColor=none;" parent="1" vertex="1">
      <mxGeometry x="64" y="180" width="40" height="35" as="geometry" />
    </mxCell>
    <mxCell id="1bcdogwH6yoz4RuCBmq0-1" value="" style="outlineConnect=0;dashed=0;verticalLabelPosition=bottom;verticalAlign=top;align=center;html=1;shape=mxgraph.aws3.cloudwatch;fillColor=#759C3E;gradientColor=none;" parent="1" vertex="1">
      <mxGeometry x="309" y="250" width="40" height="40" as="geometry" />
    </mxCell>
    <mxCell id="1bcdogwH6yoz4RuCBmq0-5" style="edgeStyle=orthogonalEdgeStyle;rounded=0;orthogonalLoop=1;jettySize=auto;html=1;entryX=0.494;entryY=0.056;entryDx=0;entryDy=0;entryPerimeter=0;" parent="1" source="1bcdogwH6yoz4RuCBmq0-2" target="SvOMnRUsbYDvrZykP-B6-26" edge="1">
      <mxGeometry relative="1" as="geometry" />
    </mxCell>
    <mxCell id="1bcdogwH6yoz4RuCBmq0-2" value="" style="outlineConnect=0;dashed=0;verticalLabelPosition=bottom;verticalAlign=top;align=center;html=1;shape=mxgraph.aws3.management_console;fillColor=#D2D3D3;gradientColor=none;" parent="1" vertex="1">
      <mxGeometry x="392" y="100" width="36" height="40" as="geometry" />
    </mxCell>
    <mxCell id="1bcdogwH6yoz4RuCBmq0-4" style="edgeStyle=orthogonalEdgeStyle;rounded=0;orthogonalLoop=1;jettySize=auto;html=1;entryX=0.5;entryY=0;entryDx=0;entryDy=0;entryPerimeter=0;" parent="1" source="1bcdogwH6yoz4RuCBmq0-3" target="1bcdogwH6yoz4RuCBmq0-2" edge="1">
      <mxGeometry relative="1" as="geometry" />
    </mxCell>
    <mxCell id="1bcdogwH6yoz4RuCBmq0-3" value="" style="outlineConnect=0;fontColor=#232F3E;gradientColor=none;fillColor=#232F3E;strokeColor=none;dashed=0;verticalLabelPosition=bottom;verticalAlign=top;align=center;html=1;fontSize=12;fontStyle=0;aspect=fixed;pointerEvents=1;shape=mxgraph.aws4.user;" parent="1" vertex="1">
      <mxGeometry x="390" y="10" width="40" height="40" as="geometry" />
    </mxCell>
    <mxCell id="LIP_4_6lwPR3aqc41IEP-4" style="edgeStyle=orthogonalEdgeStyle;rounded=0;orthogonalLoop=1;jettySize=auto;html=1;" parent="1" source="LIP_4_6lwPR3aqc41IEP-1" target="LIP_4_6lwPR3aqc41IEP-3" edge="1">
      <mxGeometry relative="1" as="geometry" />
    </mxCell>
    <mxCell id="LIP_4_6lwPR3aqc41IEP-5" style="edgeStyle=orthogonalEdgeStyle;rounded=0;orthogonalLoop=1;jettySize=auto;html=1;entryX=0;entryY=0.5;entryDx=0;entryDy=0;entryPerimeter=0;" parent="1" source="LIP_4_6lwPR3aqc41IEP-1" target="1bcdogwH6yoz4RuCBmq0-2" edge="1">
      <mxGeometry relative="1" as="geometry">
        <Array as="points">
          <mxPoint x="93" y="120" />
        </Array>
      </mxGeometry>
    </mxCell>
    <mxCell id="LIP_4_6lwPR3aqc41IEP-1" value="" style="outlineConnect=0;dashed=0;verticalLabelPosition=bottom;verticalAlign=top;align=center;html=1;shape=mxgraph.aws3.cloudfront;fillColor=#F58536;gradientColor=none;" parent="1" vertex="1">
      <mxGeometry x="75.24" y="270" width="36" height="40" as="geometry" />
    </mxCell>
    <mxCell id="LIP_4_6lwPR3aqc41IEP-3" value="" style="verticalLabelPosition=bottom;html=1;verticalAlign=top;strokeWidth=1;align=center;outlineConnect=0;dashed=0;outlineConnect=0;shape=mxgraph.aws3d.s3Bucket;fillColor=#4286c5;strokeColor=#57A2D8;aspect=fixed;" parent="1" vertex="1">
      <mxGeometry x="72.13" y="379.7" width="42.22" height="43.8" as="geometry" />
    </mxCell>
    <mxCell id="LIP_4_6lwPR3aqc41IEP-7" style="edgeStyle=orthogonalEdgeStyle;rounded=0;orthogonalLoop=1;jettySize=auto;html=1;entryX=1;entryY=0.25;entryDx=0;entryDy=0;entryPerimeter=0;" parent="1" source="LIP_4_6lwPR3aqc41IEP-6" target="1bcdogwH6yoz4RuCBmq0-2" edge="1">
      <mxGeometry relative="1" as="geometry" />
    </mxCell>
    <mxCell id="LIP_4_6lwPR3aqc41IEP-6" value="" style="points=[[0,0,0],[0.25,0,0],[0.5,0,0],[0.75,0,0],[1,0,0],[0,1,0],[0.25,1,0],[0.5,1,0],[0.75,1,0],[1,1,0],[0,0.25,0],[0,0.5,0],[0,0.75,0],[1,0.25,0],[1,0.5,0],[1,0.75,0]];outlineConnect=0;fontColor=#232F3E;gradientColor=#945DF2;gradientDirection=north;fillColor=#5A30B5;strokeColor=#ffffff;dashed=0;verticalLabelPosition=bottom;verticalAlign=top;align=center;html=1;fontSize=12;fontStyle=0;aspect=fixed;shape=mxgraph.aws4.resourceIcon;resIcon=mxgraph.aws4.route_53;" parent="1" vertex="1">
      <mxGeometry x="560" y="90" width="38" height="38" as="geometry" />
    </mxCell>
    <mxCell id="VL9K1f3Sl9hh_dgJZYFq-10" style="edgeStyle=orthogonalEdgeStyle;rounded=0;orthogonalLoop=1;jettySize=auto;html=1;entryX=0.5;entryY=1;entryDx=0;entryDy=0;entryPerimeter=0;" edge="1" parent="1" source="VL9K1f3Sl9hh_dgJZYFq-1" target="VL9K1f3Sl9hh_dgJZYFq-5">
      <mxGeometry relative="1" as="geometry" />
    </mxCell>
    <mxCell id="VL9K1f3Sl9hh_dgJZYFq-1" value="" style="rounded=1;arcSize=10;dashed=1;fillColor=none;gradientColor=none;dashPattern=8 3 1 3;strokeWidth=2;" vertex="1" parent="1">
      <mxGeometry x="278" y="574.5" width="270" height="60" as="geometry" />
    </mxCell>
    <mxCell id="VL9K1f3Sl9hh_dgJZYFq-2" value="" style="outlineConnect=0;dashed=0;verticalLabelPosition=bottom;verticalAlign=top;align=center;html=1;shape=mxgraph.aws3.ec2;fillColor=#F58534;gradientColor=none;" vertex="1" parent="1">
      <mxGeometry x="298" y="578" width="40" height="53" as="geometry" />
    </mxCell>
    <mxCell id="VL9K1f3Sl9hh_dgJZYFq-3" value="" style="outlineConnect=0;dashed=0;verticalLabelPosition=bottom;verticalAlign=top;align=center;html=1;shape=mxgraph.aws3.ec2;fillColor=#F58534;gradientColor=none;" vertex="1" parent="1">
      <mxGeometry x="488" y="574.5" width="40" height="53" as="geometry" />
    </mxCell>
    <mxCell id="VL9K1f3Sl9hh_dgJZYFq-4" value="" style="outlineConnect=0;dashed=0;verticalLabelPosition=bottom;verticalAlign=top;align=center;html=1;shape=mxgraph.aws3.auto_scaling;fillColor=#F58534;gradientColor=none;" vertex="1" parent="1">
      <mxGeometry x="278" y="560" width="25" height="28" as="geometry" />
    </mxCell>
    <mxCell id="VL9K1f3Sl9hh_dgJZYFq-9" style="edgeStyle=orthogonalEdgeStyle;rounded=0;orthogonalLoop=1;jettySize=auto;html=1;entryX=0.115;entryY=1.033;entryDx=0;entryDy=0;entryPerimeter=0;" edge="1" parent="1" source="VL9K1f3Sl9hh_dgJZYFq-5" target="SvOMnRUsbYDvrZykP-B6-12">
      <mxGeometry relative="1" as="geometry" />
    </mxCell>
    <mxCell id="VL9K1f3Sl9hh_dgJZYFq-5" value="" style="outlineConnect=0;dashed=0;verticalLabelPosition=bottom;verticalAlign=top;align=center;html=1;shape=mxgraph.aws3.classic_load_balancer;fillColor=#F58534;gradientColor=none;" vertex="1" parent="1">
      <mxGeometry x="395" y="490" width="30" height="30" as="geometry" />
    </mxCell>
    <mxCell id="VL9K1f3Sl9hh_dgJZYFq-11" style="edgeStyle=orthogonalEdgeStyle;rounded=0;orthogonalLoop=1;jettySize=auto;html=1;entryX=0.478;entryY=1.025;entryDx=0;entryDy=0;entryPerimeter=0;" edge="1" parent="1" source="VL9K1f3Sl9hh_dgJZYFq-6" target="VL9K1f3Sl9hh_dgJZYFq-1">
      <mxGeometry relative="1" as="geometry" />
    </mxCell>
    <mxCell id="VL9K1f3Sl9hh_dgJZYFq-14" style="edgeStyle=orthogonalEdgeStyle;rounded=0;orthogonalLoop=1;jettySize=auto;html=1;dashed=1;" edge="1" parent="1" source="VL9K1f3Sl9hh_dgJZYFq-6" target="VL9K1f3Sl9hh_dgJZYFq-7">
      <mxGeometry relative="1" as="geometry" />
    </mxCell>
    <mxCell id="VL9K1f3Sl9hh_dgJZYFq-6" value="" style="outlineConnect=0;dashed=0;verticalLabelPosition=bottom;verticalAlign=top;align=center;html=1;shape=mxgraph.aws3.rds_db_instance;fillColor=#2E73B8;gradientColor=none;" vertex="1" parent="1">
      <mxGeometry x="284" y="690" width="46" height="50" as="geometry" />
    </mxCell>
    <mxCell id="VL9K1f3Sl9hh_dgJZYFq-7" value="" style="outlineConnect=0;dashed=0;verticalLabelPosition=bottom;verticalAlign=top;align=center;html=1;shape=mxgraph.aws3.rds_db_instance_standby_multi_az;fillColor=#2E73B8;gradientColor=none;" vertex="1" parent="1">
      <mxGeometry x="514.25" y="690" width="45.75" height="46" as="geometry" />
    </mxCell>
  </root>
</mxGraphModel>
